<svg width="32" height="32" fill="none" xmlns="http://www.w3.org/2000/svg"><path d="M26.64 6.893c-2.547-2.05-6.577-2.398-6.75-2.41a.635.635 0 0 0-.632.375c-.01.015-.098.217-.195.532 1.685.285 3.755.858 5.627 2.02a.64.64 0 1 1-.675 1.088C20.795 6.5 16.775 6.4 16 6.4c-.775 0-4.797.1-8.015 2.098A.64.64 0 0 1 7.31 7.41c1.873-1.16 3.943-1.735 5.628-2.017-.098-.318-.185-.518-.193-.535a.631.631 0 0 0-.635-.375c-.172.012-4.202.36-6.785 2.437C3.978 8.168 1.28 15.458 1.28 21.76c0 .113.03.22.085.318 1.86 3.27 6.938 4.125 8.095 4.162h.02a.64.64 0 0 0 .518-.262l1.17-1.61c-3.158-.815-4.77-2.2-4.863-2.283a.64.64 0 0 1 .848-.96C7.19 21.16 10.16 23.68 16 23.68c5.85 0 8.82-2.53 8.85-2.555a.64.64 0 0 1 .845.96c-.092.083-1.705 1.468-4.862 2.283l1.17 1.61a.64.64 0 0 0 .517.262h.02c1.158-.037 6.235-.892 8.095-4.162a.642.642 0 0 0 .085-.318c0-6.302-2.697-13.592-4.08-14.867zM11.84 19.2c-1.237 0-2.24-1.145-2.24-2.56s1.003-2.56 2.24-2.56c1.238 0 2.24 1.145 2.24 2.56s-1.002 2.56-2.24 2.56zm8.32 0c-1.237 0-2.24-1.145-2.24-2.56s1.003-2.56 2.24-2.56c1.238 0 2.24 1.145 2.24 2.56s-1.002 2.56-2.24 2.56z" fill="#000"/></svg>