<svg width="32" height="32" fill="none" xmlns="http://www.w3.org/2000/svg"><path d="M16 3C8.82 3 3 8.82 3 16c0 6.139 4.256 11.28 9.977 12.643-.296-.07-.589-.15-.877-.24v-2.978s-.487.162-1.137.162c-1.819 0-2.574-1.622-2.763-2.437a2.532 2.532 0 0 0-.734-1.255c-.384-.341-.564-.343-.566-.46-.005-.245.329-.235.487-.235.813 0 1.429.864 1.715 1.312.708 1.103 1.469 1.288 1.86 1.288.488 0 .909-.073 1.199-.213.134-.944.554-1.785 1.239-2.387-3.049-.61-5.2-2.358-5.2-5.2 0-1.464.588-2.81 1.567-3.896-.1-.284-.267-.857-.267-1.791 0-.618.043-1.376.325-2.113 0 0 1.854.013 3.603 1.669A9.191 9.191 0 0 1 16 9.5c.902 0 1.765.134 2.573.369C20.32 8.213 22.175 8.2 22.175 8.2c.284.737.325 1.495.325 2.113 0 1.007-.134 1.595-.216 1.848.949 1.077 1.516 2.401 1.516 3.839 0 2.842-2.152 4.59-5.2 5.2.814.715 1.3 1.756 1.3 2.925v4.279c-.288.09-.581.169-.877.239C24.744 27.28 29 22.138 29 16c0-7.18-5.82-13-13-13zm.907 25.965zM16 29zm-1.106-.05z" fill="#000"/></svg>