<svg width="32" height="32" fill="none" xmlns="http://www.w3.org/2000/svg"><path d="M16 1.28c8.13 0 14.72 6.59 14.72 14.72S24.13 30.72 16 30.72 1.28 24.13 1.28 16 7.87 1.28 16 1.28zM21.078 22c.27-.83 1.54-9.11 1.696-10.74.047-.495-.109-.823-.415-.97-.37-.178-.917-.089-1.553.14-.872.315-12.015 5.046-12.66 5.32-.61.26-1.187.542-1.187.952 0 .288.17.45.642.618.49.175 1.725.55 2.454.75.702.194 1.501.026 1.95-.253.474-.295 5.954-3.962 6.348-4.283.393-.322.706.09.385.412-.321.321-4.083 3.972-4.579 4.478-.602.614-.175 1.25.23 1.505.46.29 3.779 2.516 4.279 2.873.5.357 1.006.52 1.47.52.464 0 .709-.612.94-1.322z" fill="#000"/></svg>