<svg width="40" height="40" viewBox="0 0 40 40" fill="none" xmlns="http://www.w3.org/2000/svg">
<path d="M14.2488 9.59637L10.7889 7.58546L20.2 2.08337L29.6388 7.58546L26.1788 9.59637L20.2 6.13313L14.2488 9.59637ZM32.1023 13.0596V17.1094L35.5623 15.0985V11.0487L32.1023 9.00986L28.6423 11.0208L32.1023 13.0596ZM16.74 11.0487L20.2 13.0596L23.66 11.0487L20.2 9.00986L16.74 11.0487ZM29.6388 14.5119L26.1788 12.501L20.2 15.9643L14.2488 12.501L10.7889 14.5119V18.5617L16.74 22.0249V28.9514L20.2 30.9623L23.66 28.9514V22.0249L29.6388 18.5617V14.5119ZM32.1023 26.9405L26.1512 30.4038V34.4535L35.59 28.9514V17.9752L32.1023 20.014V26.9405ZM26.1512 27.527L29.6111 25.5161V21.4384L26.1512 23.4493V27.527ZM16.74 31.8561V35.9058L20.2 37.9168L23.66 35.9058V31.8561L20.2 33.867L16.74 31.8561ZM4.81006 15.0985L8.27004 17.1094V13.0596L11.73 11.0487L8.29772 9.00986L4.83774 11.0208V15.0985H4.81006ZM8.29772 20.014L4.83774 18.0031V28.9794L14.2765 34.4814V30.4317L8.29772 26.9405V20.014ZM14.2488 23.4773L10.7889 21.4664V25.5161L14.2488 27.527V23.4773Z" fill="#F1BA0D"/>
</svg>
