<svg width="40" height="40" viewBox="0 0 40 40" fill="none" xmlns="http://www.w3.org/2000/svg">
<path d="M36.0111 3.33337L22.1206 13.6277L24.7011 7.56091L36.0111 3.33337Z" fill="#E17726"/>
<path d="M4.00244 3.33337L17.7556 13.7238L15.2987 7.56091L4.00244 3.33337Z" fill="#E27625"/>
<path d="M31.015 27.2023L27.3228 32.8573L35.2288 35.0397L37.4798 27.3258L31.015 27.2023Z" fill="#E27625"/>
<path d="M2.53369 27.3258L4.77099 35.0397L12.677 32.8573L8.99853 27.2023L2.53369 27.3258Z" fill="#E27625"/>
<path d="M12.2519 17.6496L10.042 20.9712L17.8794 21.3281L17.6049 12.8867L12.2519 17.6496Z" fill="#E27625"/>
<path d="M27.7619 17.6494L22.3128 12.7905L22.1206 21.3279L29.958 20.9711L27.7619 17.6494Z" fill="#E27625"/>
<path d="M12.6772 32.8574L17.3989 30.5652L13.336 27.3809L12.6772 32.8574Z" fill="#E27625"/>
<path d="M22.6011 30.5652L27.3228 32.8574L26.6639 27.3809L22.6011 30.5652Z" fill="#E27625"/>
<path d="M27.3228 32.8575L22.6011 30.5653L22.9717 33.6399L22.9305 34.9301L27.3228 32.8575Z" fill="#D5BFB2"/>
<path d="M12.6772 32.8575L17.0694 34.9301L17.042 33.6399L17.3989 30.5653L12.6772 32.8575Z" fill="#D5BFB2"/>
<path d="M17.1517 25.3495L13.2261 24.1965L15.9987 22.92L17.1517 25.3495Z" fill="#233447"/>
<path d="M22.8481 25.3495L24.0011 22.92L26.8011 24.1965L22.8481 25.3495Z" fill="#233447"/>
<path d="M12.6771 32.8573L13.3633 27.2023L8.99854 27.3258L12.6771 32.8573Z" fill="#CC6228"/>
<path d="M26.6362 27.2023L27.3225 32.8573L31.0147 27.3258L26.6362 27.2023Z" fill="#CC6228"/>
<path d="M29.958 20.9709L22.1206 21.3278L22.8481 25.3495L24.001 22.92L26.8011 24.1965L29.958 20.9709Z" fill="#CC6228"/>
<path d="M13.2264 24.1965L15.999 22.92L17.152 25.3495L17.8794 21.3278L10.042 20.9709L13.2264 24.1965Z" fill="#CC6228"/>
<path d="M10.042 20.9709L13.3362 27.3809L13.2264 24.1965L10.042 20.9709Z" fill="#E27525"/>
<path d="M26.8009 24.1965L26.6636 27.3809L29.9578 20.9709L26.8009 24.1965Z" fill="#E27525"/>
<path d="M17.8793 21.3278L17.1519 25.3494L18.0715 30.0985L18.2637 23.8396L17.8793 21.3278Z" fill="#E27525"/>
<path d="M22.1206 21.3278L21.75 23.8258L21.9284 30.0985L22.8481 25.3494L22.1206 21.3278Z" fill="#E27525"/>
<path d="M22.8478 25.3496L21.9282 30.0987L22.6008 30.5654L26.6636 27.381L26.8009 24.1967L22.8478 25.3496Z" fill="#F5841F"/>
<path d="M13.2261 24.1967L13.3359 27.381L17.3988 30.5654L18.0713 30.0987L17.1517 25.3496L13.2261 24.1967Z" fill="#F5841F"/>
<path d="M22.9303 34.93L22.9715 33.6398L22.6284 33.3378H17.3714L17.042 33.6398L17.0694 34.93L12.6772 32.8574L14.2145 34.1202L17.3302 36.2751H22.6696L25.7853 34.1202L27.3226 32.8574L22.9303 34.93Z" fill="#C0AC9D"/>
<path d="M22.6009 30.5653L21.9283 30.0986H18.0714L17.3988 30.5653L17.042 33.6399L17.3714 33.3379H22.6284L22.9715 33.6399L22.6009 30.5653Z" fill="#161616"/>
<path d="M36.5877 14.3003L37.7544 8.61779L36.0112 3.33337L22.6011 13.2846L27.762 17.6493L35.0367 19.7768L36.6426 17.8964L35.9426 17.3886L37.0681 16.3728L36.2171 15.7003L37.3289 14.863L36.5877 14.3003Z" fill="#763E1A"/>
<path d="M2.24561 8.61779L3.42603 14.3003L2.67111 14.863L3.7829 15.7003L2.9319 16.3728L4.05741 17.3886L3.3574 17.8964L4.96331 19.7768L12.2517 17.6493L17.3989 13.2846L4.00251 3.33337L2.24561 8.61779Z" fill="#763E1A"/>
<path d="M35.0363 19.777L27.7617 17.6495L29.9578 20.9712L26.6636 27.3811L31.0147 27.3262H37.4795L35.0363 19.777Z" fill="#F5841F"/>
<path d="M12.2515 17.6495L4.96315 19.777L2.53369 27.3262H8.99852L13.3358 27.3811L10.0417 20.9712L12.2515 17.6495Z" fill="#F5841F"/>
<path d="M22.1205 21.3276L22.6009 13.2843L24.701 7.56067H15.2988L17.3988 13.2843L17.8792 21.3276L18.0577 23.8531L18.0714 30.0984H21.9283L21.9421 23.8531L22.1205 21.3276Z" fill="#F5841F"/>
</svg>
