<svg width="40" height="40" viewBox="0 0 40 40" fill="none" xmlns="http://www.w3.org/2000/svg">
<path opacity="0.9" d="M19.9958 4.8377L20.777 3.82105C20.5522 3.64825 20.2765 3.55457 19.993 3.55457C19.7094 3.55457 19.4338 3.64825 19.2089 3.82105L19.9958 4.8377ZM33.4249 8.7837H34.7058C34.708 8.61378 34.6766 8.44509 34.6133 8.28736C34.5501 8.12964 34.4562 7.98603 34.3371 7.8648C34.218 7.74358 34.0761 7.64714 33.9195 7.58107C33.7629 7.515 33.5948 7.4806 33.4249 7.47985V8.7837ZM19.9958 36.2161L19.2836 37.2845C19.4935 37.425 19.7404 37.5 19.993 37.5C20.2456 37.5 20.4924 37.425 20.7023 37.2845L19.9958 36.2161ZM6.57835 8.7837V7.49709C6.40841 7.49783 6.2403 7.53223 6.08374 7.5983C5.92717 7.66437 5.78524 7.76081 5.66615 7.88204C5.54706 8.00326 5.45316 8.14687 5.38989 8.30459C5.32661 8.46232 5.2952 8.63101 5.29748 8.80093L6.57835 8.7837ZM19.2147 5.84861C25.0274 10.3518 31.6845 10.0646 33.4306 10.0646V7.49709C31.6213 7.49709 25.8258 7.72684 20.7942 3.82105L19.2147 5.84861ZM32.1498 8.76073C32.0521 14.7113 31.7994 18.91 31.3169 22.0174C30.8344 25.1248 30.1681 26.9399 29.2893 28.238C28.4105 29.5361 27.2847 30.3804 25.6363 31.3626C23.9878 32.3448 21.8798 33.4361 19.2836 35.1535L20.7311 37.2845C23.1894 35.6475 25.2342 34.6021 26.9746 33.5625C28.7283 32.6075 30.2501 31.2779 31.4318 29.6682C32.5805 27.9451 33.3674 25.6475 33.8729 22.408C34.3784 19.1685 34.6368 14.809 34.7345 8.80093L32.1498 8.76073ZM20.7311 35.1535C18.1521 33.4304 16.0499 32.362 14.4129 31.3684C12.7759 30.3747 11.6501 29.582 10.7655 28.238C9.88104 26.8939 9.16306 25.1076 8.66909 22.0174C8.17513 18.9273 7.95686 14.7113 7.85922 8.76073L5.29748 8.80093C5.39512 14.809 5.65934 19.18 6.15905 22.408C6.65876 25.636 7.42269 27.9336 8.59442 29.6682C9.77045 31.2788 11.2887 32.6088 13.0401 33.5625C14.7632 34.6021 16.8253 35.6475 19.2836 37.2845L20.7311 35.1535ZM6.57835 10.0646C8.30149 10.0646 14.9643 10.3518 20.777 5.84861L19.2089 3.82105C14.1659 7.72684 8.37042 7.49709 6.5726 7.49709L6.57835 10.0646Z" fill="#3688EB"/>
</svg>
