<svg width="40" height="40" viewBox="0 0 40 40" fill="none" xmlns="http://www.w3.org/2000/svg">
<path d="M8.68113 12.4756C14.9325 6.39697 25.0679 6.39697 31.3193 12.4756L32.0716 13.2071C32.3842 13.511 32.3842 14.0038 32.0716 14.3077L29.498 16.8103C29.3417 16.9622 29.0883 16.9622 28.932 16.8103L27.8967 15.8036C23.5356 11.563 16.4649 11.563 12.1038 15.8036L10.995 16.8817C10.8387 17.0336 10.5853 17.0336 10.429 16.8817L7.85534 14.3791C7.54278 14.0752 7.54278 13.5824 7.85534 13.2785L8.68113 12.4756ZM36.6419 17.6511L38.9324 19.8783C39.245 20.1823 39.245 20.675 38.9324 20.979L28.6041 31.022C28.2915 31.3259 27.7848 31.3259 27.4722 31.022L20.1418 23.8942C20.0636 23.8182 19.9369 23.8182 19.8588 23.8942L12.5285 31.022C12.2159 31.3259 11.7092 31.3259 11.3966 31.022L1.06792 20.9788C0.755355 20.6749 0.755355 20.1821 1.06792 19.8782L3.3585 17.6509C3.67107 17.347 4.17784 17.347 4.49041 17.6509L11.821 24.7789C11.8991 24.8549 12.0258 24.8549 12.104 24.7789L19.4341 17.6509C19.7467 17.347 20.2535 17.347 20.566 17.6509L27.8966 24.7789C27.9747 24.8549 28.1014 24.8549 28.1796 24.7789L35.51 17.6511C35.8225 17.3471 36.3293 17.3471 36.6419 17.6511Z" fill="#3389FB"/>
</svg>
