<svg width="32" height="32" viewBox="0 0 32 32" fill="none" xmlns="http://www.w3.org/2000/svg">
<path d="M10.2399 1.91992C5.65271 1.91992 1.91992 5.65271 1.91992 10.2399V21.7599C1.91992 26.3471 5.65271 30.0799 10.2399 30.0799H21.7599C26.3471 30.0799 30.0799 26.3471 30.0799 21.7599V10.2399C30.0799 5.65271 26.3471 1.91992 21.7599 1.91992H10.2399ZM10.2399 3.19992H21.7599C25.6553 3.19992 28.7999 6.34457 28.7999 10.2399V21.7599C28.7999 25.6553 25.6553 28.7999 21.7599 28.7999H10.2399C6.34457 28.7999 3.19992 25.6553 3.19992 21.7599V10.2399C3.19992 6.34457 6.34457 3.19992 10.2399 3.19992ZM23.6799 7.03992C22.973 7.03992 22.3999 7.613 22.3999 8.31992C22.3999 9.02685 22.973 9.59992 23.6799 9.59992C24.3868 9.59992 24.9599 9.02685 24.9599 8.31992C24.9599 7.613 24.3868 7.03992 23.6799 7.03992ZM15.9999 8.95992C12.1194 8.95992 8.95992 12.1194 8.95992 15.9999C8.95992 19.8804 12.1194 23.0399 15.9999 23.0399C19.8804 23.0399 23.0399 19.8804 23.0399 15.9999C23.0399 12.1194 19.8804 8.95992 15.9999 8.95992ZM15.9999 10.2399C19.1887 10.2399 21.7599 12.8112 21.7599 15.9999C21.7599 19.1887 19.1887 21.7599 15.9999 21.7599C12.8112 21.7599 10.2399 19.1887 10.2399 15.9999C10.2399 12.8112 12.8112 10.2399 15.9999 10.2399Z" fill="black"/>
</svg>
