<?xml version="1.0" encoding="UTF-8"?>
<svg id="Layer_1" data-name="Layer 1" xmlns="http://www.w3.org/2000/svg" viewBox="0 0 56.33 100.52">
  <defs>
    <style>
      .cls-1 {
        fill: #ededed;
        stroke: #b3b3b3;
        stroke-miterlimit: 10;
        stroke-width: .25px;
      }
    </style>
  </defs>
  <path class="cls-1" d="m56.16,41.67l-1.27-1.35-5.46-5.79-1.27-1.35-1.22,1.4-9.85,11.32c-.87-.46-1.77-.92-2.68-1.36l10.25-11.78,1.22-1.4-1.27-1.35-5.46-5.79-1.27-1.35-1.22,1.4-13.1,15.05c-6.41-3.81-8.92-7.74-8.92-13.93,0-6.8,4.85-13.65,15.7-13.65,7.31,0,12.46,2.35,14.88,3.74l1.82,1.05.66-2.15,2.35-7.67.48-1.58-1.34-.77C46.45,2.79,40.38.12,30.74.12,13.86.12,2.08,11.1,2.08,26.82c0,9.4,4.18,16.77,12.78,22.52l-8.18,9.41-1.22,1.4,1.27,1.35,5.46,5.79,1.27,1.35,1.22-1.4,10.82-12.44c.96.4,1.89.81,2.79,1.24l-11.33,13.02-1.22,1.4,1.27,1.35,5.46,5.79,1.27,1.35,1.22-1.4,12.89-14.82c2.39,2.82,3.46,6.02,3.46,10.27,0,9.65-6.71,15.64-17.5,15.64-6.39,0-13.1-1.95-18.41-5.34l-1.9-1.21-.66,2.31-2.27,7.93-.42,1.47,1.2.79c4.42,2.9,12.83,5.82,21.68,5.82,9.71,0,17.73-2.94,23.2-8.5,4.93-5.01,7.65-12.08,7.65-19.9s-2.33-14.21-7.32-19.28l8.39-9.64,1.22-1.4Z"/>
</svg>