<svg width="32" height="32" viewBox="0 0 32 32" fill="none" xmlns="http://www.w3.org/2000/svg">
<path d="M28 8.55859C27.1172 8.94922 26.168 9.21484 25.1719 9.33203C26.1875 8.72266 26.9688 7.75781 27.3359 6.60937C26.3867 7.17187 25.332 7.58203 24.2109 7.80468C23.3125 6.84765 22.0312 6.24609 20.6172 6.24609C17.8984 6.24609 15.6914 8.45312 15.6914 11.1719C15.6914 11.5586 15.7344 11.9336 15.8203 12.293C11.7266 12.0898 8.09765 10.1289 5.67187 7.14843C5.24609 7.87499 5.0039 8.72265 5.0039 9.62499C5.0039 11.332 5.87109 12.8398 7.19531 13.7227C6.38672 13.6953 5.6289 13.4766 4.96484 13.1055C4.96484 13.1289 4.96484 13.1484 4.96484 13.168C4.96484 15.5547 6.66015 17.5469 8.91406 17.9961C8.5 18.1094 8.0664 18.1719 7.61718 18.1719C7.30077 18.1719 6.98827 18.1406 6.6914 18.082C7.3164 20.0391 9.13671 21.4609 11.2891 21.5039C9.60547 22.8242 7.48047 23.6094 5.17578 23.6094C4.77734 23.6094 4.38672 23.5859 4 23.5391C6.17969 24.9375 8.76563 25.7539 11.5469 25.7539C20.6055 25.7539 25.5586 18.25 25.5586 11.7422C25.5586 11.5313 25.5508 11.3164 25.543 11.1055C26.5039 10.4102 27.3398 9.54296 28 8.55859Z" fill="black"/>
</svg>
